<svg width="88" height="40" viewBox="0 0 88 40" fill="none" xmlns="http://www.w3.org/2000/svg">
<path fill-rule="evenodd" clip-rule="evenodd" d="M70.3322 10.7829C68.4186 6.97518 64.4812 4.37537 59.9121 4.37537H46.3116V20.9026C48.9481 20.1973 51.5493 19.409 54.0833 18.5298V11.6614H59.9121C61.6146 11.6614 63.0705 12.8634 63.5923 14.6045C65.9656 13.4409 68.2237 12.1699 70.3322 10.7829ZM48.018 27.2048C58.6903 23.2484 66.5461 18.0844 71.3515 13.7663C71.4947 14.4991 71.5697 15.2569 71.5697 16.0329C71.5697 20.2102 69.0439 23.999 65.3037 25.8933L72.5412 38.3766H64.1866L57.7749 27.2048H54.0833H50.3529H48.018ZM41.4083 22.1129V4.37537H33.5199V23.6818C36.1446 23.2294 38.7841 22.709 41.4083 22.1129ZM33.5199 31.3138C36.2734 30.7553 38.9036 30.104 41.4083 29.3798V32.0593H53.241V39.9478H33.5199V39.9475V32.0593V31.3138ZM28.6169 24.4529V4.37537H20.7285V4.37551L8.09916 26.2421C11.0462 26.1443 14.2149 25.9683 17.5285 25.6949L20.7285 20.1524V25.4042C23.2999 25.1491 25.9404 24.8347 28.6169 24.4529ZM20.7285 33.1013C23.4505 32.8852 26.0805 32.5757 28.6169 32.1863V39.9475H20.7285V33.1013ZM13.0512 33.4499C10.1478 33.485 7.1528 33.4136 4.06777 33.2221L0.152344 40.0014L9.26869 40.0014L13.0512 33.4499Z" fill="#000001"/>
<path d="M74.7124 4.01378L77.7869 5.02094L79.7482 3.34233C78.5408 3.21276 76.08 2.98541 75.8963 3.11263C75.7125 3.23985 75.0305 3.76641 74.7124 4.01378Z" fill="#000001"/>
<path d="M83.3303 11.9212L81.908 13.1474L80.8635 6.96006C79.9319 7.61664 77.9302 9.00166 77.3766 9.28914C76.6845 9.64848 76.0323 10.1276 75.287 9.8215C74.6908 9.57661 72.989 8.58376 72.2126 8.11795C72.3457 7.9143 72.6956 7.50701 73.0305 7.50701C74.5019 7.80129 75.7281 7.85033 76.2676 7.50701C76.8071 7.16368 81.5647 2.89661 83.3303 1.42521C85.096 -0.0461921 85.2922 0.0518962 86.2241 0.00284946C87.156 -0.0461973 88.186 0.542366 87.2541 1.42521C86.5086 2.13148 84.5892 3.81215 83.7227 4.5642L83.3303 11.9212Z" fill="#000001"/>
</svg>
