<svg width="145" height="40" viewBox="0 0 145 40" fill="none" xmlns="http://www.w3.org/2000/svg">
<path d="M1.5 10.8639L17.2356 1.73419L32.9712 10.8639V29.1361L17.2356 38.2658L1.5 29.1361V10.8639Z" stroke="black" stroke-width="3"/>
<path d="M8.59717 14.9816L17.2358 9.96954L25.8743 14.9816V25.0185L17.2358 30.0306L8.59717 25.0185V14.9816Z" stroke="black" stroke-width="3"/>
<path d="M17.2357 10.5884V20.0001L9.05591 24.7406" stroke="black" stroke-width="3"/>
<path d="M17.2356 29.4116V37.9925" stroke="black" stroke-width="3"/>
<path d="M25.4597 24.7405L17.2356 20" stroke="black" stroke-width="3"/>
<path d="M25.0183 15.593L32.2242 11.3287" stroke="black" stroke-width="3"/>
<path d="M9.59082 15.593L2.38494 11.3287" stroke="black" stroke-width="3"/>
<path fill-rule="evenodd" clip-rule="evenodd" d="M122.552 11.0747C123.988 11.0747 125.112 9.91388 125.112 8.53349C125.112 7.09035 123.988 5.92957 122.552 5.92957C121.147 5.92957 119.992 7.09035 119.992 8.53349C119.992 9.91388 121.147 11.0747 122.552 11.0747ZM107.474 29.0196V6.30591H103.321V29.0196H107.474ZM53.6836 27.169C52.9031 28.3925 51.4358 29.4592 49.1568 29.4592C45.8789 29.4592 43.8809 27.2317 43.8809 24.816C43.8809 22.0553 45.9101 20.518 48.47 20.1415L52.2475 19.5768C53.1216 19.4513 53.4026 19.0121 53.4026 18.4788C53.4026 17.3807 52.5597 16.4709 50.8114 16.4709C49.0007 16.4709 48.0017 17.6317 47.8769 18.9807L44.193 18.1964C44.4428 15.7807 46.6593 13.1141 50.7802 13.1141C55.6503 13.1141 57.461 15.8749 57.461 18.9807V26.5729C57.461 27.3886 57.5547 28.4866 57.6483 29.02H53.8396C53.746 28.6121 53.6836 27.7651 53.6836 27.169ZM48.033 24.5646C48.033 25.4745 48.6886 26.3529 50.031 26.3529C51.7792 26.3529 53.4026 25.5058 53.4026 22.7764V22.0862L49.9373 22.6196C48.8759 22.7764 48.033 23.3725 48.033 24.5646ZM65.7964 29.0198V21.961C65.7964 18.6355 67.6383 17.6002 69.7611 17.6002C70.1358 17.6002 70.5416 17.6316 71.0099 17.7257V13.5218C70.6977 13.4904 70.3855 13.4591 70.0421 13.4591C68.7309 13.4591 66.608 13.8355 65.6715 15.8747V13.5845H61.6443V29.0198H65.7964ZM78.003 21.961V29.0198H73.8509V13.5845H77.8781V15.8747C78.8146 13.8355 80.9375 13.4591 82.2487 13.4591C82.5921 13.4591 82.9043 13.4904 83.2165 13.5218V17.7257C82.7482 17.6316 82.3424 17.6002 81.9677 17.6002C79.8449 17.6002 78.003 18.6355 78.003 21.961ZM92.8319 29.4906C96.6094 29.4906 99.0445 27.2631 99.825 24.5964L96.3597 23.5611C95.8602 24.9415 94.7987 25.9141 92.8632 25.9141C90.8027 25.9141 89.0857 24.4396 88.992 22.4004H99.981C99.981 22.385 99.9848 22.3357 99.9904 22.2613C100.008 22.0321 100.043 21.5641 100.043 21.1141C100.043 16.1572 97.2026 13.1141 92.4573 13.1141C88.5238 13.1141 84.9024 16.3141 84.9024 21.2396C84.9024 26.4474 88.6174 29.4906 92.8319 29.4906ZM92.5197 16.502C90.3656 16.502 89.1793 18.1334 89.0857 19.5452H95.9538C95.8913 18.0079 94.8923 16.502 92.5197 16.502ZM116.059 6.30591V29.0196H111.906V6.30591H116.059ZM124.644 13.5845V29.0198H120.492V13.5845H124.644ZM135.976 29.4906C140.565 29.4906 144.031 26.0396 144.031 21.3023C144.031 16.5337 140.565 13.1141 135.976 13.1141C131.387 13.1141 127.922 16.5337 127.922 21.3023C127.922 26.0396 131.387 29.4906 135.976 29.4906ZM132.074 21.3023C132.074 24.1886 133.947 25.6945 135.976 25.6945C138.005 25.6945 139.879 24.22 139.879 21.3023C139.879 18.3847 138.005 16.9102 135.976 16.9102C133.947 16.9102 132.074 18.3847 132.074 21.3023Z" fill="black"/>
</svg>
