<svg width="173" height="36" viewBox="0 0 173 36" fill="none" xmlns="http://www.w3.org/2000/svg">
<path d="M11.5929 31.7612C11.9516 31.7612 12.2114 31.6752 12.3722 31.5032C12.533 31.3312 12.6134 31.0302 12.6134 30.6002C12.6134 30.1333 12.5082 29.6787 12.298 29.2364H9.08824C9.0264 27.9832 8.98929 25.1267 8.97692 20.6667H17.3445C17.7526 20.6667 18.0309 20.5961 18.1794 20.4548C18.3278 20.3135 18.402 20.034 18.402 19.6163C18.402 18.9159 18.2969 18.2402 18.0866 17.589H8.97692L8.97745 16.768C8.98222 13.1656 9.01915 10.8038 9.08824 9.68281H9.9788C14.0358 9.68281 17.363 10.205 19.9605 11.2493C20.5666 10.291 20.8696 9.35722 20.8696 8.44804C20.8696 7.69858 20.6995 7.20405 20.3594 6.96447C20.0192 6.72489 19.4534 6.6051 18.6617 6.6051H1.77824C1.41954 6.6051 1.14743 6.68189 0.961893 6.83547C0.77636 6.98904 0.683594 7.23784 0.683594 7.58186C0.683594 8.07331 0.794914 8.58933 1.01755 9.12993H3.13263C3.20684 10.7026 3.24395 13.2888 3.24395 16.8887L3.24389 17.3492C3.24385 17.5013 3.24379 17.652 3.24371 17.8014L3.24299 18.6811C3.23673 24.2916 3.19994 27.8101 3.13263 29.2364H1.77824C1.41954 29.2364 1.14743 29.3132 0.961893 29.4668C0.77636 29.6204 0.683594 29.863 0.683594 30.1947C0.683594 30.6985 0.794914 31.2206 1.01755 31.7612H11.5929ZM29.6824 27.0433C30.0287 27.0433 30.2823 26.9573 30.4431 26.7853C30.6039 26.6133 30.6843 26.3123 30.6843 25.8823C30.6843 25.4154 30.5792 24.9608 30.3689 24.5185H28.6063C28.7795 23.5724 29.2124 21.8094 29.9051 19.2292H37.7717C38.5385 21.8708 39.0147 23.6339 39.2003 24.5185H38.3839C38.0252 24.5185 37.7531 24.5953 37.5676 24.7488C37.382 24.9024 37.2893 25.1451 37.2893 25.4768C37.2893 25.9805 37.3944 26.5027 37.6047 27.0433H47.0854C47.4441 27.0433 47.7039 26.9573 47.8647 26.7853C48.0255 26.6133 48.1058 26.3123 48.1058 25.8823C48.1058 25.4154 48.0007 24.9608 47.7904 24.5185H46.0464C45.0817 22.1104 43.517 17.7457 41.3524 11.4244C39.1879 5.1031 37.9696 1.87488 37.6974 1.73974C37.4253 1.60459 36.2565 1.53701 34.1909 1.53701C32.5582 1.53701 31.4512 2.1114 30.8698 3.26016C30.2885 4.40893 29.1104 7.64636 27.3354 12.9725C25.5605 18.2986 24.2339 22.1472 23.3557 24.5185H22.3539C21.9952 24.5185 21.7261 24.5953 21.5468 24.7488C21.3674 24.9024 21.2778 25.1451 21.2778 25.4768C21.2778 25.9805 21.3829 26.5027 21.5932 27.0433H29.6824ZM36.8625 16.1515H30.7214C32.4654 9.95925 33.4518 6.86311 33.6807 6.86311C33.9095 6.86311 34.9701 9.95925 36.8625 16.1515ZM59.108 36C59.9861 36 60.6293 35.8956 61.0375 35.6867V32.0192C63.7092 31.8472 65.8645 31.1254 67.5033 29.8538C69.1422 28.5822 69.9616 26.7914 69.9616 24.4816C69.9616 22.0981 69.2906 20.4057 67.9486 19.4043C66.6066 18.403 64.8842 17.589 62.7815 16.9624V10.033C64.3029 10.3278 65.9727 10.8807 67.7909 11.6916C68.5454 10.8807 68.9227 9.96539 68.9227 8.94563C68.9227 7.87673 68.4526 7.17948 67.5126 6.8539C66.5726 6.52831 64.9955 6.3348 62.7815 6.27337V3.71168C62.7815 3.34309 62.7042 3.04822 62.5496 2.82707C62.395 2.60592 61.9837 2.49534 61.3158 2.49534C60.7839 2.49534 60.1841 2.59977 59.5161 2.80864V6.31023C57.1908 6.43309 55.2087 7.14877 53.5698 8.45725C51.9309 9.76574 51.1115 11.6363 51.1115 14.069C51.1115 15.8751 51.6372 17.3433 52.6885 18.4736C53.7399 19.604 55.4344 20.507 57.7721 21.1828V28.3887C55.9663 28.0815 54.0862 27.4365 52.1319 26.4536C51.2785 27.2522 50.8517 28.1675 50.8517 29.1996C50.8517 30.3667 51.4485 31.1346 52.6421 31.5032C53.8357 31.8718 55.5457 32.0745 57.7721 32.1114V34.5625C57.7721 35.1031 57.8711 35.4778 58.069 35.6867C58.2669 35.8956 58.6132 36 59.108 36ZM60.3696 16.299C59.0585 15.8321 58.103 15.3437 57.5031 14.8338C56.9032 14.3239 56.6033 13.5714 56.6033 12.5762C56.6033 11.667 56.9063 10.9544 57.5124 10.4384C58.1185 9.92239 59.0709 9.65209 60.3696 9.62752V16.299ZM60.1841 28.6282V21.8831C61.223 22.2148 62.194 22.6725 63.0969 23.2561C63.9998 23.8397 64.4513 24.7028 64.4513 25.8454C64.4513 26.8283 64.1452 27.5286 63.5329 27.9464C62.9207 28.3641 61.8044 28.5914 60.1841 28.6282ZM83.8766 25.1561C84.2353 25.1561 84.4951 25.0701 84.6559 24.8981C84.8167 24.7261 84.8971 24.4251 84.8971 23.9951C84.8971 23.5282 84.7919 23.0736 84.5816 22.6313H82.4666C82.4171 21.329 82.3862 18.2881 82.3738 13.5088H91.5948C91.5824 18.2881 91.5453 21.329 91.4835 22.6313H90.1291C89.7704 22.6313 89.5014 22.7081 89.322 22.8617C89.1427 23.0153 89.053 23.2579 89.053 23.5896C89.053 24.0934 89.1581 24.6155 89.3684 25.1561H99.0347C99.381 25.1561 99.6346 25.0701 99.7954 24.8981C99.9562 24.7261 100.037 24.4251 100.037 23.9951C100.037 23.5282 99.9314 23.0736 99.7212 22.6313H97.4391C97.3701 21.1684 97.3331 17.51 97.3283 11.6562L97.3278 10.302C97.3268 10.001 97.326 9.70709 97.3256 9.42024L97.3257 8.17722C97.3302 5.65397 97.3618 3.76984 97.4205 2.52483H99.0347C99.381 2.52483 99.6346 2.4419 99.7954 2.27603C99.9562 2.11017 100.037 1.80608 100.037 1.36378C100.037 0.909184 99.9314 0.454592 99.7212 0H90.1291C89.7704 0 89.5014 0.0767892 89.322 0.230368C89.1427 0.383946 89.053 0.632743 89.053 0.976758C89.053 1.46821 89.1581 1.98423 89.3684 2.52483H91.4649C91.5391 4.09747 91.5824 6.73288 91.5948 10.431H82.3738C82.3723 9.96877 82.3713 9.52311 82.3709 9.09405V8.25807C82.3734 5.68092 82.3991 3.76984 82.448 2.52483H83.8766C84.2353 2.52483 84.4951 2.4419 84.6559 2.27603C84.8167 2.11017 84.8971 1.80608 84.8971 1.36378C84.8971 0.909184 84.7919 0.454592 84.5816 0H74.9896C74.6309 0 74.3588 0.0767892 74.1732 0.230368C73.9877 0.383946 73.895 0.632743 73.895 0.976758C73.895 1.46821 74.0063 1.98423 74.2289 2.52483H76.511C76.5728 4.09747 76.6099 6.68373 76.6223 10.2836L76.6221 11.1963C76.6193 17.3201 76.5885 21.1318 76.5295 22.6313H74.9896C74.6309 22.6313 74.3588 22.7081 74.1732 22.8617C73.9877 23.0153 73.895 23.2579 73.895 23.5896C73.895 24.0934 74.0063 24.6155 74.2289 25.1561H83.8766ZM113.97 31.7612C114.329 31.7612 114.589 31.6752 114.749 31.5032C114.91 31.3312 114.991 31.0302 114.991 30.6002C114.991 30.1333 114.885 29.6787 114.675 29.2364H112.189C112.133 27.8101 112.102 24.2967 112.097 18.6962L112.096 16.9071C112.084 13.295 112.109 10.7026 112.17 9.12993H113.97C114.329 9.12993 114.589 9.047 114.749 8.88113C114.91 8.71527 114.991 8.41118 114.991 7.96888C114.991 7.51428 114.885 7.05969 114.675 6.6051H104.526C104.168 6.6051 103.896 6.68189 103.71 6.83547C103.525 6.98904 103.432 7.23784 103.432 7.58186C103.432 8.07331 103.543 8.58933 103.766 9.12993H106.233C106.295 10.7026 106.332 13.2888 106.345 16.8887L106.344 17.8014C106.344 17.9507 106.344 18.0987 106.344 18.2453L106.343 19.1085C106.337 24.4707 106.307 27.8466 106.252 29.2364H104.526C104.168 29.2364 103.896 29.3132 103.71 29.4668C103.525 29.6204 103.432 29.863 103.432 30.1947C103.432 30.6985 103.543 31.2206 103.766 31.7612H113.97ZM129.778 35.9042C133.773 35.9042 136.893 34.7493 139.138 32.4394C141.383 30.1296 142.505 26.5789 142.505 21.7872C142.505 17.315 141.556 14.2343 139.657 12.5449C137.759 10.8555 134.979 10.0109 131.317 10.0109C127.434 10.0109 124.369 11.1658 122.124 13.4756C119.879 15.7854 118.757 19.3361 118.757 24.1278C118.757 28.6 119.703 31.6808 121.595 33.3701C123.488 35.0595 126.215 35.9042 129.778 35.9042ZM130.835 32.3657C129.042 32.3657 127.644 31.6808 126.642 30.3108C125.64 28.9409 125.139 26.284 125.139 22.3401C125.139 19.1457 125.547 16.882 126.364 15.5489C127.18 14.2158 128.528 13.5493 130.408 13.5493C132.214 13.5493 133.615 14.2066 134.611 15.5212C135.606 16.8359 136.104 19.5204 136.104 23.5749C136.104 26.7693 135.696 29.0331 134.88 30.3661C134.063 31.6992 132.715 32.3657 130.835 32.3657ZM167.107 31.9455C168.269 31.9455 168.987 31.792 169.259 31.4848C169.531 31.1776 169.667 30.4405 169.667 29.2733L169.667 16.4609C169.669 13.0807 169.694 10.637 169.741 9.12993H171.355C171.714 9.12993 171.974 9.047 172.135 8.88113C172.296 8.71527 172.376 8.41118 172.376 7.96888C172.376 7.51428 172.271 7.05969 172.061 6.6051H163.712C163.353 6.6051 163.081 6.68189 162.895 6.83547C162.71 6.98904 162.617 7.23784 162.617 7.58186C162.617 8.07331 162.722 8.58933 162.932 9.12993H165.029C165.097 10.5715 165.134 12.8648 165.139 16.0099L165.14 25.3847C163.532 21.4039 161.961 18.0682 160.428 15.3775C158.894 12.6868 157.298 9.76267 155.641 6.6051H147.681C147.323 6.6051 147.051 6.68189 146.865 6.83547C146.68 6.98904 146.587 7.23784 146.587 7.58186C146.587 8.07331 146.698 8.58933 146.921 9.12993H148.832C148.906 10.7026 148.949 13.2888 148.962 16.8887L148.961 18.2453C148.956 24.1098 148.919 27.7735 148.85 29.2364H147.31C146.952 29.2364 146.68 29.3132 146.494 29.4668C146.309 29.6204 146.216 29.863 146.216 30.1947C146.216 30.6985 146.327 31.2206 146.55 31.7612H154.806C155.152 31.7612 155.406 31.6752 155.567 31.5032C155.727 31.3312 155.808 31.0302 155.808 30.6002C155.808 30.1333 155.703 29.6787 155.492 29.2364H153.563C153.507 27.815 153.476 23.5832 153.471 16.5409L153.47 15.6267C153.47 15.4718 153.47 15.3156 153.47 15.1581L153.47 14.198C155.301 18.5842 157.298 22.5527 159.463 26.1034C161.627 29.6541 162.864 31.5155 163.173 31.6875C163.483 31.8595 164.794 31.9455 167.107 31.9455Z" fill="#000001"/>
</svg>
