<svg width="141" height="144" viewBox="0 0 141 144" fill="none" xmlns="http://www.w3.org/2000/svg">
<path d="M132.131 41.5018C132.363 41.2696 132.363 41.0357 132.363 40.8034C139.348 25.2041 140.513 10.0696 140.745 4.48299C140.745 3.31853 140.278 2.15407 139.58 1.22351C138.882 0.292913 137.485 -0.173195 136.321 0.0590491C130.5 0.291289 115.599 1.68962 100 8.44079C99.7679 8.44079 99.534 8.44079 99.534 8.67303C91.6184 12.1648 83.7027 17.0548 76.9499 24.04C71.5953 29.3945 66.4731 35.2152 61.817 41.0358C57.1609 39.173 33.1799 30.325 21.3049 48.9515C16.6488 56.1687 12.2247 66.6459 11.9927 66.8795C11.7604 67.3456 11.9927 68.044 12.4588 68.2762C12.9249 68.5085 13.3894 68.5085 13.8555 68.2762C14.5539 67.8101 28.7564 57.3334 41.7942 69.2068C36.4396 77.5886 33.4125 83.1772 33.4125 83.1772C33.1802 83.6433 33.1802 84.1078 33.6447 84.5739L34.8092 85.7384L22.9355 97.6121C22.4694 98.0782 22.4694 98.7766 22.9355 99.2427C23.1677 99.4749 23.4016 99.4749 23.8661 99.4749C24.0983 99.4749 24.5644 99.4749 24.7967 99.2427L36.6704 87.369L42.7234 93.422L41.3267 94.8187C41.0945 95.051 41.0945 95.2849 41.0945 95.7493C41.0945 96.2154 41.3267 96.4477 41.3267 96.6799L45.0523 100.406C45.2845 100.638 45.5184 100.638 45.9829 100.638C46.449 100.638 46.6813 100.638 46.9135 100.406L48.3102 99.0088L54.3633 105.062L38.2979 121.127C37.8318 121.593 37.8318 122.292 38.2979 122.758C38.5301 122.99 38.764 122.99 39.2285 122.99C39.6946 122.99 39.9268 122.99 40.1591 122.758L56.2245 106.692L57.3889 107.857C57.6212 108.089 57.855 108.089 58.3195 108.089C58.5518 108.089 58.7856 108.089 58.7856 107.857C59.0179 107.857 64.6063 104.597 72.756 99.4752C85.0958 112.281 74.3866 126.948 73.9205 127.648C73.6883 128.114 73.6883 128.579 73.9205 129.045C74.1527 129.277 74.3866 129.511 74.8511 129.511H75.3172C75.7833 129.279 86.028 124.855 93.2452 120.199C112.338 107.859 102.557 82.9456 100.928 79.2216C106.749 74.5655 112.337 69.4429 117.692 64.3207C123.75 57.3339 128.638 49.4182 132.131 41.5025L132.131 41.5018ZM136.555 2.38619C137.021 2.38619 137.719 2.61843 137.951 2.8523C138.417 3.31841 138.417 3.78289 138.417 4.249C138.185 9.83724 137.021 23.806 130.734 38.7068C115.601 27.0655 105.123 14.0277 102.097 10.0697C116.764 4.01659 130.966 2.61818 136.555 2.38619ZM15.4851 64.7836C17.1157 61.058 20.1412 55.0049 23.1684 50.3488C33.6451 33.8173 54.8327 40.8025 60.1873 43.1316C53.2021 51.9794 47.1495 60.5935 42.7254 67.5787C32.2486 58.2649 20.841 61.9888 15.4847 64.7837L15.4851 64.7836ZM35.2762 83.8745C36.4406 81.7794 39.9323 75.7247 45.2868 67.577L56.4621 78.7523L43.4242 91.7901L35.2762 83.8745ZM45.0549 98.0769L42.9598 95.9818L44.3565 94.5851L59.2574 79.9166L78.5819 60.5921L80.677 62.6871L61.3524 82.0117L45.0549 98.0769ZM57.1622 105.528L49.0125 97.3784L62.0503 84.3405L73.2256 95.5158C65.3099 100.87 59.2568 104.364 57.1618 105.528H57.1622ZM90.9216 118.1C86.2655 121.127 80.2108 123.921 76.4868 125.783C79.2802 120.195 83.0059 108.787 73.4596 98.3105C80.4447 93.6544 89.2909 87.5997 98.1387 80.6161C100.002 85.5047 107.685 107.389 90.9215 118.099L90.9216 118.1ZM75.3222 94.3512L63.6809 82.7099L83.0055 63.3854C83.2377 63.1531 83.2377 62.9193 83.2377 62.4548C83.2377 61.9887 83.0055 61.7564 83.0055 61.5242L79.2799 57.7986C78.8138 57.3325 78.1154 57.3325 77.6493 57.7986L58.3248 77.1231L46.6835 65.4818C54.5992 53.6081 65.776 38.4736 78.3478 25.6677C84.8669 19.1486 92.3182 14.4925 99.7678 10.9993C102.563 14.7249 113.506 28.9273 129.803 41.0347C126.311 48.486 121.653 55.9355 115.135 62.4547C102.331 75.2605 87.196 86.4355 75.3222 94.3512Z" fill="black"/>
<path d="M11.9911 119.499L34.3433 97.147C34.8094 96.6809 34.8094 95.9826 34.3433 95.5165C33.8772 95.0504 33.1788 95.0504 32.7127 95.5165L10.3606 117.869C9.89446 118.335 9.89446 119.033 10.3606 119.499C10.5928 119.731 10.8267 119.731 11.2912 119.731C11.7589 119.733 11.7589 119.733 11.9911 119.499Z" fill="black"/>
<path d="M26.4285 119.499C26.6607 119.499 27.1268 119.499 27.3591 119.266L43.4245 103.201C43.8906 102.735 43.8906 102.036 43.4245 101.57C42.9584 101.104 42.26 101.104 41.7939 101.57L25.7285 117.636C25.2624 118.102 25.2624 118.8 25.7285 119.266C25.7301 119.499 25.964 119.499 26.4285 119.499Z" fill="black"/>
<path d="M4.30747 132.771C4.53971 133.004 4.77358 133.004 5.23807 133.004C5.70418 133.004 5.93642 133.004 6.16866 132.771L25.4932 113.447C25.9593 112.981 25.9593 112.282 25.4932 111.816C25.0271 111.35 24.3288 111.35 23.8627 111.816L4.30735 131.141C3.84124 131.607 3.84136 132.305 4.30747 132.771Z" fill="black"/>
<path d="M17.8131 135.096C18.0453 135.328 18.2792 135.328 18.7437 135.328C19.2098 135.328 19.442 135.328 19.6743 135.096L45.984 108.786C46.4501 108.32 46.4501 107.622 45.984 107.156C45.5179 106.69 44.8196 106.69 44.3535 107.156L17.813 133.467C17.3469 133.933 17.347 134.631 17.8131 135.096Z" fill="black"/>
<path d="M18.5104 126.253C18.0443 125.787 17.3459 125.787 16.8798 126.253L1.28049 141.852C0.814381 142.318 0.814381 143.017 1.28049 143.483C1.51273 143.715 1.7466 143.715 2.21109 143.715C2.6772 143.715 2.90944 143.715 3.14169 143.483L18.741 127.883C18.9765 127.416 18.9765 126.717 18.5104 126.253Z" fill="black"/>
<path d="M16.881 143.25C17.1132 143.482 17.3471 143.482 17.8116 143.482C18.2777 143.482 18.5099 143.482 18.7422 143.25L31.082 130.91C31.5481 130.444 31.5481 129.746 31.082 129.28C30.6158 128.814 29.9175 128.814 29.4514 129.28L17.1116 141.619C16.4149 142.086 16.4149 142.784 16.881 143.25Z" fill="black"/>
<path d="M1.98015 121.593L16.6486 106.924C17.1147 106.458 17.1147 105.76 16.6486 105.294C16.1825 104.828 15.4841 104.828 15.018 105.294L0.349582 119.962C-0.116527 120.428 -0.116527 121.127 0.349582 121.593C0.581822 121.825 0.81569 121.825 1.28018 121.825C1.74629 121.827 1.74628 121.827 1.98015 121.593Z" fill="black"/>
</svg>
